<?xml version="1.0" encoding="UTF-8"?>
<svg width="36px" height="38px" viewBox="0 0 36 38" version="1.1" xmlns="http://www.w3.org/2000/svg" xmlns:xlink="http://www.w3.org/1999/xlink">
    <title>documentation_icon</title>
    <g id="Page-1" stroke="none" stroke-width="1" fill="none" fill-rule="evenodd">
        <g id="web_list_view.html" transform="translate(-716.000000, -1011.000000)" fill="#6D7278">
            <g id="Cell_1" transform="translate(226.000000, 633.000000)">
                <g id="Tags_section" transform="translate(34.000000, 365.000000)">
                    <g id="Docs_tag" transform="translate(441.000000, 0.000000)">
                        <path d="M17.4000636,13 L48.6000727,13 C49.9200055,13 51,13.8429547 51,14.8732919 L51,49.1267081 C51,50.1570453 49.9200055,51 48.6000727,51 L17.4000636,51 C16.0799945,51 15,50.1570453 15,49.1267081 L15,14.8732919 C15,13.8429547 16.0799945,13 17.4000636,13 Z M19.7819394,19 C19.3501079,19 19,19.4477431 19,20 C19,20.5522569 19.3501079,21 19.7819394,21 L38.2180606,21 C38.6498921,21 39,20.5522569 39,20 C39,19.4477431 38.6498921,19 38.2180606,19 L19.7819394,19 Z M19.7958392,25 C19.3563315,25 19,25.4475694 19,25.9998264 C19,26.5520833 19.3563315,27 19.7958392,27 L46.2041608,27 C46.6438067,27 47,26.5520833 47,25.9998264 C47,25.4475694 46.6438067,25 46.2041608,25 L19.7958392,25 Z M19.7958392,31 C19.3563315,31 19,31.4477431 19,32 C19,32.5522569 19.3563315,33 19.7958392,33 L46.2041608,33 C46.6438067,33 47,32.5522569 47,32 C47,31.4477431 46.6438067,31 46.2041608,31 L19.7958392,31 Z M19.7958392,37 C19.3563315,37 19,37.4477042 19,37.9999132 C19,38.5522958 19.3563315,39 19.7958392,39 L46.2041608,39 C46.6438067,39 47,38.5522958 47,37.9999132 C47,37.4477042 46.6438067,37 46.2041608,37 L19.7958392,37 Z M19.7958392,43 C19.3563315,43 19,43.4475694 19,44 C19,44.5522569 19.3563315,45 19.7958392,45 L46.2041608,45 C46.6438067,45 47,44.5522569 47,44 C47,43.4475694 46.6438067,43 46.2041608,43 L19.7958392,43 L19.7958392,43 Z" id="documentation_icon"></path>
                    </g>
                </g>
            </g>
        </g>
    </g>
</svg>