<?xml version="1.0" encoding="UTF-8"?>
<svg width="48px" height="48px" viewBox="0 0 48 48" version="1.1" xmlns="http://www.w3.org/2000/svg" xmlns:xlink="http://www.w3.org/1999/xlink">
    <title>github_icon</title>
    <g id="Page-1" stroke="none" stroke-width="1" fill="none" fill-rule="evenodd">
        <g id="web_list_view.html" transform="translate(-491.000000, -1006.000000)" fill-rule="nonzero">
            <g id="Cell_1" transform="translate(226.000000, 633.000000)">
                <g id="Tags_section" transform="translate(34.000000, 365.000000)">
                    <g id="GitHub_tag" transform="translate(216.000000, 0.000000)">
                        <g id="github_icon" transform="translate(15.000000, 8.000000)">
                            <path d="M16.4496,46.7693059 C21.3478274,48.4094097 26.6468513,48.4102522 31.5456,46.7717059 C31.1833205,46.8882994 30.7870733,46.8235103 30.4807938,46.5976029 C30.1745143,46.3716956 29.9955961,46.0122509 30,45.6316936 C30,44.8204848 30.0312,42.2404569 30.0312,39.0316222 C30.1613967,37.3866015 29.5701807,35.7662142 28.4112,34.5915742 C33.7512,33.9915677 39.36,31.9515456 39.36,22.740246 C39.3987954,20.3544332 38.5179118,18.0452042 36.9,16.2913762 C37.6336577,14.2182704 37.5478079,11.9432252 36.66,9.93130743 C36.66,9.93130743 34.6488,9.27130029 30.06,12.391334 C26.1329162,11.3112024 21.9870838,11.3112024 18.06,12.391334 C13.4688,9.3001006 11.46,9.9289074 11.46,9.9289074 C10.5719511,11.9407696 10.4860978,14.2159077 11.22,16.2889762 C9.60675889,18.0456949 8.72661395,20.3529876 8.76,22.737846 C8.76,31.9179453 14.34,33.9891677 19.68,34.5891742 C18.7968,35.4387834 18.2544,36.5787957 18.1488,37.7980089 C16.9618059,38.4637092 15.5589013,38.630346 14.2489942,38.2612273 C12.939087,37.8921086 11.8295882,37.0175016 11.1648,35.8299876 L11.16,35.8179875 C10.4046934,34.4448126 9.02688554,33.5265627 7.4688,33.3579608 C5.46,33.3891612 6.66,34.4979732 7.5,34.9491781 C8.5824,35.8611879 9.4272,37.0252005 9.96,38.3380147 C10.44,39.6892293 12,42.2692572 18.0288,41.1580452 C18.0288,43.169267 18.06,45.0580874 18.06,45.6292936 C18.06,46.2509003 17.616,46.9517079 16.452,46.7693059 L16.4496,46.7693059 Z" id="Path" fill="#CBCBCB"></path>
                            <path d="M24,0 C10.7448,0 0,10.7449162 0,24.0002596 C0,34.6155744 6.9,43.6060717 16.452,46.7717059 C17.616,46.9517079 18.06,46.2533003 18.06,45.6316936 C18.06,45.0604874 18.0312,43.171667 18.0312,41.1604452 C12,42.2716573 10.44,39.6916294 9.96,38.3404147 C9.42711789,37.0279272 8.58282343,35.8648475 7.5,34.9515781 C6.66,34.5003732 5.46,33.3915612 7.4688,33.3603609 C9.0288,33.5283627 10.404,34.4475726 11.16,35.8203875 L11.1672,35.8347876 C11.8319882,37.0223017 12.941487,37.8969086 14.2513942,38.2660274 C15.5613013,38.6351461 16.9642059,38.4685093 18.1512,37.8028089 C18.2544,36.5787957 18.7992,35.4411834 19.68,34.5915742 C14.34,33.9915677 8.76,31.9203453 8.76,22.740246 C8.72661395,20.3553877 9.60675889,18.048095 11.22,16.2913762 C10.4863423,14.2182704 10.5721921,11.9432252 11.46,9.93130743 C11.46,9.93130743 13.4688,9.3001006 18.06,12.391334 C21.9870838,11.3112024 26.1329162,11.3112024 30.06,12.391334 C34.6488,9.27130029 36.66,9.93130743 36.66,9.93130743 C37.548,11.9425292 37.6344,14.2177538 36.9,16.2913762 C38.5179118,18.0452042 39.3987954,20.3544332 39.36,22.740246 C39.36,31.9515456 33.7488,33.9915677 28.4112,34.5915742 C29.568,35.7675869 30.1608,37.3852044 30.0312,39.0316222 C30.0312,42.2404569 30,44.8204848 30,45.6316936 C29.9950716,46.0120924 30.1733485,46.3716589 30.4791105,46.5980107 C30.7848724,46.8243626 31.1808199,46.8898876 31.5432,46.774106 C41.0976,43.6084717 48,34.6179745 48,24.0002596 C48,10.7449162 37.2552,0 24,0 Z" id="Path" fill="#6D7278"></path>
                        </g>
                    </g>
                </g>
            </g>
        </g>
    </g>
</svg>