<?xml version="1.0" encoding="UTF-8"?>
<svg width="48px" height="34px" viewBox="0 0 48 34" version="1.1" xmlns="http://www.w3.org/2000/svg" xmlns:xlink="http://www.w3.org/1999/xlink">
    <title>tutorial_icon</title>
    <g id="Page-1" stroke="none" stroke-width="1" fill="none" fill-rule="evenodd">
        <g id="web_list_view.html" transform="translate(-1264.000000, -1013.000000)">
            <g id="Cell_1" transform="translate(226.000000, 633.000000)">
                <g id="Tags_section" transform="translate(34.000000, 365.000000)">
                    <g id="Website_tag" transform="translate(989.000000, 0.000000)">
                        <g id="tutorial_icon" transform="translate(15.000000, 15.000000)">
                            <path d="M40.8,0 C44.7764502,1.57716369e-16 48,3.2235498 48,7.2 L48,26.8 C48,30.7764502 44.7764502,34 40.8,34 L36.8,34 L36.8,0 L40.8,0 Z M6.8,22.6666667 L4.4,22.6666667 C3.3456382,22.6666667 2.48183488,23.4825445 2.40548574,24.5174043 L2.4,24.6666667 L2.4,25.5238095 C2.4,26.5781713 3.21587779,27.4419746 4.25073766,27.5183238 L4.4,27.5238095 L6.8,27.5238095 C7.8543618,27.5238095 8.71816512,26.7079317 8.79451426,25.6730719 L8.8,25.5238095 L8.8,24.6666667 C8.8,23.5620972 7.9045695,22.6666667 6.8,22.6666667 Z M42.8,22.6666667 L40.4,22.6666667 C39.3456382,22.6666667 38.4818349,23.4825445 38.4054857,24.5174043 L38.4,24.6666667 L38.4,25.5238095 C38.4,26.5781713 39.2158778,27.4419746 40.2507377,27.5183238 L40.4,27.5238095 L42.8,27.5238095 C43.8543618,27.5238095 44.7181651,26.7079317 44.7945143,25.6730719 L44.8,25.5238095 L44.8,24.6666667 C44.8,23.5620972 43.9045695,22.6666667 42.8,22.6666667 Z M6.8,14.5714286 L4.4,14.5714286 C3.3456382,14.5714286 2.48183488,15.3873064 2.40548574,16.4221662 L2.4,16.5714286 L2.4,17.4285714 C2.4,18.4829332 3.21587779,19.3467366 4.25073766,19.4230857 L4.4,19.4285714 L6.8,19.4285714 C7.8543618,19.4285714 8.71816512,18.6126936 8.79451426,17.5778338 L8.8,17.4285714 L8.8,16.5714286 C8.8,15.4668591 7.9045695,14.5714286 6.8,14.5714286 Z M42.8,14.5714286 L40.4,14.5714286 C39.3456382,14.5714286 38.4818349,15.3873064 38.4054857,16.4221662 L38.4,16.5714286 L38.4,17.4285714 C38.4,18.4829332 39.2158778,19.3467366 40.2507377,19.4230857 L40.4,19.4285714 L42.8,19.4285714 C43.8543618,19.4285714 44.7181651,18.6126936 44.7945143,17.5778338 L44.8,17.4285714 L44.8,16.5714286 C44.8,15.4668591 43.9045695,14.5714286 42.8,14.5714286 Z M6.8,6.47619048 L4.4,6.47619048 C3.3456382,6.47619048 2.48183488,7.29206827 2.40548574,8.32692813 L2.4,8.47619048 L2.4,9.33333333 C2.4,10.3876951 3.21587779,11.2514985 4.25073766,11.3278476 L4.4,11.3333333 L6.8,11.3333333 C7.8543618,11.3333333 8.71816512,10.5174555 8.79451426,9.48259568 L8.8,9.33333333 L8.8,8.47619048 C8.8,7.37162098 7.9045695,6.47619048 6.8,6.47619048 Z M42.8,6.47619048 L40.4,6.47619048 C39.3456382,6.47619048 38.4818349,7.29206827 38.4054857,8.32692813 L38.4,8.47619048 L38.4,9.33333333 C38.4,10.3876951 39.2158778,11.2514985 40.2507377,11.3278476 L40.4,11.3333333 L42.8,11.3333333 C43.8543618,11.3333333 44.7181651,10.5174555 44.7945143,9.48259568 L44.8,9.33333333 L44.8,8.47619048 C44.8,7.37162098 43.9045695,6.47619048 42.8,6.47619048 Z M10.4,34 L7.2,34 C3.2235498,34 1.37515312e-15,30.7764502 0,26.8 L0,7.2 C-4.86974701e-16,3.2235498 3.2235498,1.61864047e-15 7.2,0 L10.4,0 L10.4,34 Z" id="Combined-Shape" fill="#6D7278"></path>
                            <rect id="Rectangle" stroke="#6D7278" stroke-width="1.6" x="10.4" y="0.8" width="26.4" height="32.4"></rect>
                            <path d="M25.5138341,10.4108721 L32.3077434,23.838834 C32.5072099,24.2330736 32.349315,24.7143676 31.9550753,24.9138341 C31.8431103,24.9704831 31.7193895,25 31.5939093,25 L18.0060907,25 C17.5642629,25 17.2060907,24.6418278 17.2060907,24.2 C17.2060907,24.0745198 17.2356076,23.950799 17.2922566,23.838834 L24.0861659,10.4108721 C24.2856324,10.0166324 24.7669264,9.85873753 25.161166,10.058204 C25.3132991,10.1351761 25.436862,10.258739 25.5138341,10.4108721 Z" id="Triangle" fill="#6D7278" transform="translate(24.800000, 17.000000) rotate(90.000000) translate(-24.800000, -17.000000) "></path>
                        </g>
                    </g>
                </g>
            </g>
        </g>
    </g>
</svg>